<?xml version="1.0" encoding="utf-8"?>
<svg viewBox="0 0 512 512" xmlns="http://www.w3.org/2000/svg">
  <rect style="stroke: rgb(0, 0, 0); fill: rgb(1, 11, 19); stroke-width: 0px;" x="0" y="0" width="512" height="512" rx="85" ry="85"/>
  <path opacity="1.000000" stroke="none" d="M 200.908 131.207 C 207.335 125.389 213.458 119.809 219.634 114.276 C 220.967 113.081 222.35 111.854 223.941 110.992 C 227.778 108.916 231.88 110.207 233.871 113.867 C 234.915 115.784 234.974 117.813 234.943 119.877 C 234.848 125.517 234.708 131.161 234.706 136.801 C 234.687 180.763 234.695 224.726 234.695 268.687 C 234.695 287.482 234.672 306.277 234.708 325.072 C 234.722 333.108 234.713 341.148 234.986 349.179 C 235.218 355.956 232.51 361.492 227.305 366.184 C 216.333 376.076 205.371 385.978 194.393 395.868 C 193.594 396.589 192.798 397.342 191.881 397.925 C 187.395 400.782 185.182 400.684 180.66 397.665 C 179.755 397.061 179.014 396.256 178.213 395.531 C 167.265 385.614 156.431 375.588 145.321 365.822 C 139.971 361.117 140.635 356.818 145.27 352.569 C 147.921 350.137 150.717 347.832 153.391 345.42 C 161.417 338.177 169.425 330.918 177.417 323.643 C 178.879 322.312 180.346 320.966 181.612 319.484 C 183.786 316.936 183.79 314.046 181.691 311.433 C 180.809 310.334 179.755 309.336 178.691 308.374 C 166.945 297.737 155.18 287.122 143.429 276.492 C 129.141 263.564 114.848 250.638 100.591 237.677 C 99.002 236.232 97.546 234.637 96.227 232.98 C 94.487 230.796 94.662 228.491 96.339 226.31 C 96.979 225.475 97.749 224.71 98.533 223.978 C 102.878 219.934 107.212 215.878 111.613 211.882 C 125.342 199.412 139.091 186.962 152.856 174.52 C 156.059 171.622 159.385 168.832 162.58 165.923 C 172.036 157.317 181.436 148.662 190.892 140.055 C 194.087 137.147 197.377 134.325 200.908 131.207 Z" style="fill: rgb(255, 255, 255);"/>
  <path opacity="1.000000" stroke="none" d="M -381.317 -340.16 C -374.888 -345.978 -368.764 -351.557 -362.591 -357.09 C -361.258 -358.284 -359.872 -359.51 -358.281 -360.372 C -354.444 -362.449 -350.343 -361.158 -348.352 -357.5 C -347.308 -355.579 -347.25 -353.553 -347.28 -351.489 C -347.373 -345.847 -347.514 -340.204 -347.517 -334.564 C -347.538 -290.601 -347.529 -246.641 -347.529 -202.678 C -347.529 -183.883 -347.551 -165.09 -347.516 -146.295 C -347.501 -138.258 -347.51 -130.218 -347.237 -122.187 C -347.009 -115.411 -349.713 -109.874 -354.919 -105.183 C -365.892 -95.289 -376.854 -85.388 -387.83 -75.498 C -388.631 -74.777 -389.424 -74.024 -390.342 -73.44 C -394.827 -70.582 -397.042 -70.681 -401.568 -73.701 C -402.469 -74.305 -403.21 -75.11 -404.011 -75.835 C -414.959 -85.753 -425.792 -95.777 -436.9 -105.545 C -442.253 -110.25 -441.588 -114.548 -436.953 -118.798 C -434.302 -121.229 -431.508 -123.533 -428.833 -125.944 C -420.807 -133.187 -412.799 -140.448 -404.808 -147.722 C -403.347 -149.053 -401.878 -150.4 -400.612 -151.881 C -398.438 -154.429 -398.433 -157.319 -400.533 -159.932 C -401.413 -161.031 -402.468 -162.03 -403.532 -162.991 C -415.277 -173.629 -427.043 -184.242 -438.794 -194.873 C -453.084 -207.801 -467.378 -220.726 -481.63 -233.687 C -483.223 -235.134 -484.68 -236.729 -485.998 -238.385 C -487.733 -240.568 -487.562 -242.877 -485.887 -245.055 C -485.248 -245.89 -484.478 -246.655 -483.69 -247.389 C -479.346 -251.433 -475.013 -255.487 -470.613 -259.483 C -456.883 -271.953 -443.13 -284.405 -429.371 -296.846 C -426.165 -299.743 -422.839 -302.532 -419.643 -305.44 C -410.189 -314.048 -400.784 -322.703 -391.332 -331.311 C -388.137 -334.22 -384.847 -337.041 -381.317 -340.16 Z" style="fill: rgb(255, 255, 255); transform-origin: -72.224px 38.636px;" transform="matrix(-1, 0, 0, -1, 72.223999023438, -38.635997772217)"/>
</svg>